<svg width="458" height="420" viewBox="0 0 458 420" fill="none" xmlns="http://www.w3.org/2000/svg">
<path d="M508.805 -0.000148864C457.833 13.6576 410.051 37.2211 368.186 69.345C326.322 101.469 291.194 141.524 264.809 187.224C238.425 232.923 221.3 283.372 214.412 335.69C207.524 388.008 211.008 441.17 224.666 492.142C238.324 543.113 261.887 590.895 294.011 632.76C326.135 674.624 366.191 709.752 411.89 736.137C457.59 762.521 508.039 779.646 560.357 786.534C612.675 793.422 665.837 789.938 716.808 776.28L698.336 707.34C656.418 718.572 612.698 721.437 569.673 715.773C526.647 710.109 485.159 696.025 447.576 674.327C409.994 652.628 377.053 623.74 350.635 589.311C324.216 554.882 304.838 515.587 293.606 473.669C282.374 431.751 279.509 388.032 285.173 345.006C290.838 301.981 304.921 260.492 326.619 222.91C348.318 185.327 377.206 152.386 411.635 125.968C446.064 99.55 485.359 80.1717 527.277 68.9399L508.805 -0.000148864Z" fill="#4864E1"/>
<path d="M56.0114 483.339C79.5399 469.286 100.07 450.738 116.43 428.751C132.79 406.764 144.659 381.771 151.36 355.197C158.061 328.624 159.462 300.991 155.483 273.876C151.504 246.761 142.224 220.695 128.172 197.166C114.12 173.638 95.5708 153.108 73.5843 136.748C51.5978 120.388 26.6042 108.519 0.0306813 101.818C-26.5429 95.1171 -54.176 93.7161 -81.291 97.6947C-108.406 101.673 -134.472 110.954 -158 125.006L-138.994 156.829C-119.645 145.272 -98.2088 137.64 -75.9099 134.368C-53.6109 131.097 -30.8859 132.249 -9.03223 137.759C12.8214 143.27 33.3757 153.031 51.4571 166.485C69.5384 179.939 84.7927 196.823 96.349 216.172C107.905 235.522 115.537 256.958 118.809 279.257C122.081 301.556 120.929 324.281 115.418 346.134C109.908 367.988 100.147 388.542 86.6928 406.624C73.2386 424.705 56.3548 439.959 37.0054 451.516L56.0114 483.339Z" fill="#F9CD4D"/>
</svg>
