<svg width="354" height="204" viewBox="0 0 354 204" fill="none" xmlns="http://www.w3.org/2000/svg">
<path d="M272 82L312 42" stroke="white" stroke-width="6" stroke-linecap="square" stroke-linejoin="round"/>
<path d="M271.75 39.75L314.25 39.75L314.25 82.25" stroke="white" stroke-width="6" stroke-linecap="square"/>
<mask id="mask0_24_2" style="mask-type:alpha" maskUnits="userSpaceOnUse" x="0" y="0" width="354" height="204">
<rect width="354" height="204" rx="53" fill="#4864E1"/>
</mask>
<g mask="url(#mask0_24_2)">
<path d="M240.387 168.432C239.573 185.689 235.501 202.637 228.392 218.378L209.776 209.641C215.734 196.356 219.149 182.065 219.835 167.514C220.553 152.297 218.272 137.095 213.123 122.774C207.974 108.453 200.057 95.2937 189.825 84.0487C179.593 72.8036 167.245 63.6927 153.487 57.2363C139.729 50.7798 124.831 47.1044 109.643 46.4198C94.4544 45.7352 79.2739 48.0548 64.968 53.2458C50.6621 58.4367 37.5109 66.3975 26.265 76.6732C15.5114 86.4992 6.7012 98.258 0.289687 111.331L-18.3261 102.595C-10.7611 87.068 -0.327811 73.1059 12.426 61.4522C25.672 49.3489 41.1616 39.973 58.0102 33.8593C74.8587 27.7457 92.7363 25.0142 110.622 25.8205C128.508 26.6267 146.052 30.9548 162.253 38.5577C178.454 46.1605 192.994 56.8893 205.044 70.1316C217.093 83.374 226.417 98.8706 232.481 115.737C238.545 132.603 241.232 150.509 240.387 168.432Z" fill="#F9CD4D" stroke="#4864E1" stroke-width="4"/>
</g>
</svg>
