<svg width="147" height="148" viewBox="0 0 147 148" fill="none" xmlns="http://www.w3.org/2000/svg">
<mask id="mask0_1_53" style="mask-type:alpha" maskUnits="userSpaceOnUse" x="0" y="0" width="147" height="148">
<rect width="147" height="148" rx="19.3391" fill="#4864E1"/>
</mask>
<g mask="url(#mask0_1_53)">
<path d="M-26.7621 108.782C-17.9368 117.608 -7.45971 124.608 4.07103 129.384C15.6018 134.16 27.9604 136.619 40.4412 136.619C52.922 136.619 65.2806 134.16 76.8113 129.384C88.3421 124.608 98.8192 117.608 107.644 108.782C116.47 99.957 123.47 89.4799 128.246 77.9492C133.023 66.4184 135.481 54.0598 135.481 41.579C135.481 29.0982 133.023 16.7397 128.246 5.2089C123.47 -6.32185 116.47 -16.799 107.644 -25.6242L95.708 -13.6878C102.966 -6.43007 108.723 2.18613 112.651 11.6688C116.579 21.1515 118.6 31.315 118.6 41.579C118.6 51.843 116.579 62.0065 112.651 71.4892C108.723 80.9719 102.966 89.5881 95.708 96.8459C88.4503 104.104 79.8341 109.861 70.3514 113.789C60.8687 117.717 50.7052 119.738 40.4412 119.738C30.1772 119.738 20.0137 117.717 10.531 113.789C1.04826 109.861 -7.56794 104.104 -14.8257 96.8459L-26.7621 108.782Z" fill="#FFD65A"/>
</g>
</svg>
