<svg width="292" height="194" viewBox="0 0 292 194" fill="none" xmlns="http://www.w3.org/2000/svg">
<mask id="mask0_1_200" style="mask-type:alpha" maskUnits="userSpaceOnUse" x="0" y="0" width="292" height="194">
<rect width="292" height="194" rx="50" fill="#F9CD4D"/>
</mask>
<g mask="url(#mask0_1_200)">
<path d="M328.435 102.014C321.027 86.7787 310.692 73.1517 298.018 61.9111C285.344 50.6704 270.58 42.0361 254.569 36.5012C238.558 30.9662 221.614 28.6391 204.704 29.6525C187.794 30.666 171.249 35.0002 156.014 42.4078C140.779 49.8153 127.152 60.1511 115.911 72.8251C104.67 85.499 96.036 100.263 90.501 116.274C84.9661 132.284 82.6389 149.229 83.6524 166.139C84.6658 183.049 89.0001 199.594 96.4076 214.829L117.014 204.81C110.922 192.281 107.357 178.675 106.524 164.768C105.69 150.861 107.604 136.927 112.156 123.76C116.708 110.593 123.809 98.4512 133.053 88.0284C142.297 77.6056 153.503 69.1056 166.033 63.0137C178.562 56.9219 192.168 53.3574 206.075 52.524C219.981 51.6905 233.916 53.6044 247.083 58.1562C260.25 62.708 272.392 69.8087 282.814 79.0529C293.237 88.297 301.737 99.5036 307.829 112.033L328.435 102.014Z" fill="#4864E1"/>
</g>
</svg>
